<svg id="visual" viewBox="0 0 900 100" width="900" height="100" xmlns="http://www.w3.org/2000/svg" xmlns:xlink="http://www.w3.org/1999/xlink" version="1.1"><rect x="0" y="0" width="900" height="100" fill="#001F44"></rect><path d="M0 59L4.8 54C9.7 49 19.3 39 29 34.3C38.7 29.7 48.3 30.3 58 40.8C67.7 51.3 77.3 71.7 87 72.2C96.7 72.7 106.3 53.3 116 45.3C125.7 37.3 135.3 40.7 145 45.5C154.7 50.3 164.3 56.7 174 55C183.7 53.3 193.3 43.7 203 48.8C212.7 54 222.3 74 232 76.7C241.7 79.3 251.3 64.7 261 49.5C270.7 34.3 280.3 18.7 290 23.5C299.7 28.3 309.3 53.7 319 60.8C328.7 68 338.3 57 348 48.7C357.7 40.3 367.3 34.7 377 30.5C386.7 26.3 396.3 23.7 406 23.7C415.7 23.7 425.3 26.3 435.2 27.5C445 28.7 455 28.3 464.8 32.7C474.7 37 484.3 46 494 57.7C503.7 69.3 513.3 83.7 523 76C532.7 68.3 542.3 38.7 552 31.8C561.7 25 571.3 41 581 49.3C590.7 57.7 600.3 58.3 610 53.5C619.7 48.7 629.3 38.3 639 36.7C648.7 35 658.3 42 668 47.3C677.7 52.7 687.3 56.3 697 62.7C706.7 69 716.3 78 726 75.3C735.7 72.7 745.3 58.3 755 56.2C764.7 54 774.3 64 784 66.7C793.7 69.3 803.3 64.7 813 64C822.7 63.3 832.3 66.7 842 60.2C851.7 53.7 861.3 37.3 871 30.5C880.7 23.7 890.3 26.3 895.2 27.7L900 29L900 101L895.2 101C890.3 101 880.7 101 871 101C861.3 101 851.7 101 842 101C832.3 101 822.7 101 813 101C803.3 101 793.7 101 784 101C774.3 101 764.7 101 755 101C745.3 101 735.7 101 726 101C716.3 101 706.7 101 697 101C687.3 101 677.7 101 668 101C658.3 101 648.7 101 639 101C629.3 101 619.7 101 610 101C600.3 101 590.7 101 581 101C571.3 101 561.7 101 552 101C542.3 101 532.7 101 523 101C513.3 101 503.7 101 494 101C484.3 101 474.7 101 464.8 101C455 101 445 101 435.2 101C425.3 101 415.7 101 406 101C396.3 101 386.7 101 377 101C367.3 101 357.7 101 348 101C338.3 101 328.7 101 319 101C309.3 101 299.7 101 290 101C280.3 101 270.7 101 261 101C251.3 101 241.7 101 232 101C222.3 101 212.7 101 203 101C193.3 101 183.7 101 174 101C164.3 101 154.7 101 145 101C135.3 101 125.7 101 116 101C106.3 101 96.7 101 87 101C77.3 101 67.7 101 58 101C48.3 101 38.7 101 29 101C19.3 101 9.7 101 4.8 101L0 101Z" fill="#F5EFE0" stroke-linecap="round" stroke-linejoin="miter"></path></svg>